<mxfile host="65bd71144e">
    <diagram id="CW7f_bTAO_coUOs3hszG" name="containers">
        <mxGraphModel dx="1301" dy="536" grid="1" gridSize="10" guides="1" tooltips="1" connect="1" arrows="1" fold="1" page="1" pageScale="1" pageWidth="850" pageHeight="1100" math="0" shadow="0">
            <root>
                <mxCell id="0"/>
                <mxCell id="1" parent="0"/>
                <mxCell id="2" value="POSIX-compliant shell" style="rounded=1;whiteSpace=wrap;html=1;fontSize=16;" vertex="1" parent="1">
                    <mxGeometry x="180" y="60" width="120" height="60" as="geometry"/>
                </mxCell>
                <mxCell id="3" value="GNU make" style="rounded=1;whiteSpace=wrap;html=1;fontSize=16;" vertex="1" parent="1">
                    <mxGeometry x="180" y="150" width="120" height="60" as="geometry"/>
                </mxCell>
                <mxCell id="4" value="NodeJS" style="rounded=1;whiteSpace=wrap;html=1;fontSize=16;" vertex="1" parent="1">
                    <mxGeometry x="180" y="460" width="120" height="60" as="geometry"/>
                </mxCell>
                <mxCell id="5" value="podman" style="rounded=1;whiteSpace=wrap;html=1;fontSize=16;" vertex="1" parent="1">
                    <mxGeometry x="180" y="240" width="120" height="60" as="geometry"/>
                </mxCell>
                <mxCell id="8" value="install" style="shape=process;whiteSpace=wrap;html=1;backgroundOutline=1;fontSize=16;size=0.08888888888888889;" vertex="1" parent="1">
                    <mxGeometry x="700" y="220" width="140" height="50" as="geometry"/>
                </mxCell>
                <mxCell id="12" value="./src/containers/node/" style="shape=note;whiteSpace=wrap;html=1;backgroundOutline=1;darkOpacity=0.05;fontSize=16;size=15;" vertex="1" parent="1">
                    <mxGeometry x="360" y="160" width="240" height="100" as="geometry"/>
                </mxCell>
                <mxCell id="15" style="edgeStyle=orthogonalEdgeStyle;html=1;entryX=0.5;entryY=1;entryDx=0;entryDy=0;entryPerimeter=0;fontSize=16;endArrow=block;endFill=0;strokeWidth=3;endSize=12;startSize=12;jumpSize=12;" edge="1" parent="1" source="13" target="12">
                    <mxGeometry relative="1" as="geometry"/>
                </mxCell>
                <mxCell id="13" value="./src/containers/node-chrome/" style="shape=note;whiteSpace=wrap;html=1;backgroundOutline=1;darkOpacity=0.05;fontSize=16;size=15;" vertex="1" parent="1">
                    <mxGeometry x="400" y="340" width="240" height="100" as="geometry"/>
                </mxCell>
                <mxCell id="14" value="deploy" style="shape=process;whiteSpace=wrap;html=1;backgroundOutline=1;fontSize=16;size=0.08888888888888889;" vertex="1" parent="1">
                    <mxGeometry x="700" y="290" width="140" height="50" as="geometry"/>
                </mxCell>
                <mxCell id="16" value="./src/containers/playwright/" style="shape=note;whiteSpace=wrap;html=1;backgroundOutline=1;darkOpacity=0.05;fontSize=16;size=15;" vertex="1" parent="1">
                    <mxGeometry x="360" y="480" width="240" height="100" as="geometry"/>
                </mxCell>
                <mxCell id="17" value="./src/containers/libraries/" style="shape=note;whiteSpace=wrap;html=1;backgroundOutline=1;darkOpacity=0.05;fontSize=16;size=15;" vertex="1" parent="1">
                    <mxGeometry x="360" y="20" width="240" height="100" as="geometry"/>
                </mxCell>
            </root>
        </mxGraphModel>
    </diagram>
</mxfile>
